<?xml version="1.0" encoding="utf-8"?>
<!-- Generator: Adobe Illustrator 21.1.0, SVG Export Plug-In . SVG Version: 6.00 Build 0)  -->
<svg version="1.1" id="lfg"
    xmlns="http://www.w3.org/2000/svg"
    xmlns:xlink="http://www.w3.org/1999/xlink" x="0px" y="0px" viewBox="0 0 40 40" style="enable-background:new 0 0 40 40;" xml:space="preserve">
    <g>
        <path d="M38.8,33.4c-0.7-0.7-1.3-1.3-2-2c-1-0.9-1.9-1.9-2.9-2.8c0-0.1,0-0.1,0.1-0.2c0-0.1,0.1-0.1,0.1-0.2c0.6-0.9,0.9-2,1-3.1
		c0.2-2.1-0.2-4-1.5-5.7c-1-1.3-2.3-2.2-3.9-2.7c-1.2-0.3-2.5-0.4-3.7-0.2c-1.8,0.4-3.2,1.2-4.4,2.5c-1.7,2-2.2,4.2-1.6,6.7
		c0.7,3.2,3.5,5.6,6.7,5.9c1.7,0.2,3.3-0.2,4.8-1.1c0.3-0.2,0.5-0.1,0.7,0.1c0.5,0.5,1,1.1,1.5,1.6c1,1,2,2,3,2.9
		c0.6,0.6,1.5,0.6,2,0C39.4,34.9,39.4,34,38.8,33.4z M27.4,29c-2.5-0.1-4.7-2.3-4.7-4.9c0-2.6,2.2-4.8,4.8-4.8
		c2.6-0.1,4.8,2.3,4.8,4.8C32.4,26.8,30.2,29.1,27.4,29z M11.7,26.2c-0.5-0.2-1-0.4-1.5-0.6c-0.7-0.4-1.2-1-1.1-1.9
		c0-0.8,0.2-1.6,0.3-2.3c0.1-0.9,0.5-1.7,1.3-2.2c1.3-0.9,2.7-1.7,4-2.5c0.1-0.1,0.2-0.2,0.3-0.3c-0.1-0.1-0.2-0.2-0.3-0.3
		c-1.3-0.5-2.2-1.4-2.7-2.7C12,13,11.7,13,11.4,13.1c-1.5,0.7-3,1.3-4.5,2C5.2,16,3.5,17,2,18.2c-0.3,0.2-0.6,0.5-0.7,0.8
		c-0.2,0.8-0.3,1.6-0.4,2.4c-0.1,0.3,0.1,0.5,0.4,0.6c0.9,0.4,1.9,0.9,2.8,1.4c0.8,0.5,1.5,1,1.9,1.9c0.5,1.1,0.9,2.1,1.3,3.2
		c0.1,0.3,0.2,0.4,0.5,0.3c0.4-0.1,0.9-0.2,1.3-0.3c1.1-0.3,2-0.9,2.8-1.6C12.2,26.5,12.2,26.4,11.7,26.2z M19.3,28.5
		c-1-1.7-1.4-3.5-1.2-5.4c0.3-2.4,1.3-4.4,3.2-6c1-0.9,2.2-1.4,3.5-1.8c1.2-0.3,2.4-0.3,3.7-0.2c0,0,0-0.1,0-0.1
		c-0.1-0.3-0.2-0.6-0.3-1c-0.3-0.7-0.5-0.8-1.1-0.6c0,0-0.1,0-0.1,0c-0.8,0.3-1.7,0.5-2.5,0.8c-2,0.8-4,1.5-5.9,2.4
		c-2.3,1-4.5,2.1-6.4,3.7c-0.3,0.3-0.7,0.6-0.8,1c-0.2,0.7-0.3,1.5-0.4,2.3c0,0.3,0,0.4,0.3,0.5c0.6,0.2,1.2,0.5,1.7,0.8
		c1.1,0.6,2.3,1.2,2.9,2.4c0.5,1.1,1,2.2,1.4,3.3c0.1,0.4,0.3,0.5,0.7,0.5c0.8-0.2,1.5-0.4,2.2-0.7c0.3-0.1,0.4-0.3,0.1-0.6
		C19.9,29.4,19.6,28.9,19.3,28.5z M17,14.8c1.2,0,2.2-0.4,3.2-0.9c1.5-0.9,2.6-2.1,3-3.8c0.2-1-0.2-2.3-1-2.9
		c-1-0.8-2.1-0.8-3.3-0.7c-1.6,0.2-2.9,0.9-4,2.1c-0.9,0.9-1.4,2-1.5,3.3c0.1,0.5,0.2,0.9,0.4,1.4C14.5,14.4,15.7,14.8,17,14.8z
		 M6.9,12.5c1.5,0.1,2.7-0.4,3.8-1.2c1.1-0.8,2-1.8,2.4-3.2c0.5-1.9-0.5-3.5-2.4-3.9C9.5,4,8.4,4.2,7.3,4.7c-1.8,0.8-3.2,2-3.7,4
		c-0.3,1.1-0.1,2.2,0.8,3C5.2,12.4,6,12.6,6.9,12.5z"/>
    </g>
</svg>
